<svg width="25" height="24" viewBox="0 0 25 24" fill="none" xmlns="http://www.w3.org/2000/svg">
<path d="M12.5 18.25C12.0858 18.25 11.75 18.5858 11.75 19C11.75 19.4142 12.0858 19.75 12.5 19.75H18.5C19.4665 19.75 20.25 18.9665 20.25 18V5.99997C20.25 5.03347 19.4665 4.24997 18.5 4.24997H12.5C12.0858 4.24997 11.75 4.58576 11.75 4.99997C11.75 5.41418 12.0858 5.74997 12.5 5.74997L18.5 5.74997C18.6381 5.74997 18.75 5.8619 18.75 5.99997L18.75 18C18.75 18.138 18.6381 18.25 18.5 18.25H12.5Z" fill="white"/>
<path fill-rule="evenodd" clip-rule="evenodd" d="M3.75 13.1152C3.75 13.8055 4.30964 14.3652 5 14.3652H9.6126C9.61912 14.4386 9.62595 14.512 9.63308 14.5854L9.68711 15.1413C9.76954 15.9894 10.6701 16.4973 11.4386 16.129C13.0728 15.3458 14.6514 14.1705 15.9049 12.8618C16.3691 12.3771 16.3691 11.6128 15.9049 11.1281L15.8057 11.0245C14.5522 9.71575 13.0728 8.644 11.4386 7.86081C10.6701 7.49255 9.76954 8.00046 9.68711 8.84857L9.63308 9.40445C9.62595 9.47784 9.61912 9.55125 9.6126 9.62467L5 9.62467C4.30964 9.62467 3.75 10.1843 3.75 10.8747V13.1152ZM11.0532 13.5307C11.0107 13.1537 10.6913 12.8652 10.308 12.8652H5.25L5.25 11.1247H10.308C10.7041 11.1247 11.0319 10.8167 11.0565 10.4214C11.0747 10.1305 11.0978 9.83984 11.126 9.54956L11.1417 9.38821C12.4466 10.0607 13.6342 10.9409 14.6577 11.9949C14.2303 12.435 13.7744 12.8448 13.2932 13.2218C12.622 13.7478 11.9018 14.21 11.1417 14.6016L11.126 14.4403C11.0978 14.15 11.0747 13.8594 11.0565 13.5685C11.0557 13.5558 11.0546 13.5432 11.0532 13.5307Z" fill="white"/>
</svg>
