<svg width="197" height="104" viewBox="0 0 197 104" fill="none" xmlns="http://www.w3.org/2000/svg">
<path d="M29.6975 43.6584H0V0H43.6592V29.695H38.8245V4.83469H4.83552V38.8237H29.6975V43.6584Z" fill="#B3B3B3"/>
<path d="M47.9971 38.8227H43.6591V34.4182H38.8244V38.8227H34.4856V43.6582H38.8244V47.9281H43.6591V43.6582H47.9971V38.8227Z" fill="#B3B3B3"/>
<path d="M19.77 9.59274H9.53882V14.4273H19.77V9.59274Z" fill="#B3B3B3"/>
<path d="M0.330322 64.0771H4.75405V66.286C5.25064 65.5253 5.9274 64.899 6.72423 64.4627C7.52106 64.0264 8.41329 63.7936 9.32171 63.785C12.6675 63.785 14.6157 65.9969 14.6157 69.5759V79.6727H10.1945V70.9713C10.1945 68.875 9.20494 67.7991 7.51824 67.7991C5.83038 67.7991 4.75405 68.875 4.75405 70.9713V79.6727H0.330322V64.0771Z" fill="#B3B3B3"/>
<path d="M17.3801 58.4316H22.0366V62.3577H17.3801V58.4316ZM17.4969 64.0769H21.9194V79.6725H17.4969V64.0769Z" fill="#B3B3B3"/>
<path d="M24.9156 64.0771H29.3386V66.2861C29.8416 65.5249 30.5238 64.8988 31.3253 64.4627C32.1267 64.0267 33.023 63.794 33.9354 63.7851C34.8273 63.733 35.7155 63.9381 36.4943 64.3762C37.2731 64.8142 37.9096 65.4667 38.3283 66.2561C38.9349 65.4788 39.7123 64.8516 40.6004 64.4231C41.4884 63.9946 42.4631 63.7763 43.4491 63.7851C46.7369 63.7851 48.7159 65.7622 48.7159 69.5167V79.6728H44.2934V70.9714C44.2934 68.8751 43.362 67.7992 41.7033 67.7992C40.045 67.7992 39.027 68.8751 39.027 70.9714V79.6728H34.6045V70.9714C34.6045 68.8751 33.6726 67.7992 32.0155 67.7992C30.3569 67.7992 29.3386 68.8751 29.3386 70.9714V79.6728H24.9156V64.0771Z" fill="#B3B3B3"/>
<path d="M55.8148 77.6351V79.6725H51.3928V58.4316H55.8148V66.3166C56.3484 65.5221 57.0728 64.8741 57.9215 64.4318C58.7703 63.9895 59.7164 63.7671 60.6733 63.7848C64.311 63.7848 67.7736 66.6367 67.7736 71.8434V71.9015C67.7736 77.1091 64.3694 79.9621 60.6733 79.9621C59.738 79.9803 58.8115 79.7794 57.9678 79.3753C57.1242 78.9712 56.3868 78.3753 55.8148 77.6351ZM63.3507 71.9015V71.8434C63.3507 69.2541 61.6052 67.5377 59.5394 67.5377C57.4727 67.5377 55.7581 69.2541 55.7581 71.8434V71.9015C55.7581 74.4908 57.4727 76.2075 59.5394 76.2075C61.6052 76.2075 63.3507 74.5212 63.3507 71.9015Z" fill="#B3B3B3"/>
<path d="M70.0714 58.4316H74.495V79.6725H70.0714V58.4316Z" fill="#B3B3B3"/>
<path d="M76.7311 71.9592V71.9017C76.7311 67.4491 79.905 63.785 84.4438 63.785C89.6502 63.785 92.0373 67.8291 92.0373 72.2504C92.0373 72.6004 92.0097 73.0063 91.9797 73.4155H81.1273C81.2654 74.3087 81.733 75.1177 82.4381 75.6831C83.1431 76.2485 84.0343 76.5293 84.9361 76.4701C85.6434 76.4793 86.3448 76.3419 86.9963 76.0665C87.6478 75.7912 88.2352 75.3839 88.7215 74.8703L91.2521 77.1093C90.1708 78.3844 88.7271 79.3004 87.1128 79.7355C85.4985 80.1707 83.79 80.1045 82.2143 79.5456C80.6386 78.9867 79.2701 77.9617 78.2908 76.6067C77.3114 75.2517 76.7674 73.6308 76.7311 71.9592ZM87.7312 70.6509C87.47 68.6723 86.3069 67.3336 84.4438 67.3336C82.6116 67.3336 81.4168 68.6443 81.0696 70.6509H87.7312Z" fill="#B3B3B3"/>
<path d="M100.968 71.9592V71.9017C100.968 67.4491 104.141 63.785 108.678 63.785C113.886 63.785 116.273 67.8291 116.273 72.2504C116.273 72.6004 116.244 73.0063 116.212 73.4155H105.363C105.501 74.3088 105.969 75.1179 106.674 75.6833C107.38 76.2487 108.271 76.5294 109.173 76.4701C109.88 76.479 110.581 76.3415 111.232 76.0662C111.884 75.7908 112.471 75.3836 112.957 74.8703L115.487 77.1093C114.405 78.3844 112.962 79.3004 111.348 79.7356C109.734 80.1707 108.025 80.1045 106.45 79.5456C104.874 78.9867 103.506 77.9616 102.527 76.6066C101.548 75.2515 101.004 73.6306 100.968 71.9592ZM111.968 70.6509C111.705 68.6723 110.54 67.3336 108.678 67.3336C106.846 67.3336 105.654 68.6443 105.307 70.6509H111.968Z" fill="#B3B3B3"/>
<path d="M118.397 64.0771H122.818V66.286C123.316 65.5257 123.993 64.8998 124.79 64.4635C125.588 64.0273 126.48 63.7943 127.389 63.785C130.733 63.785 132.684 65.9969 132.684 69.5759V79.6727H128.26V70.9713C128.26 68.875 127.273 67.7991 125.584 67.7991C123.897 67.7991 122.818 68.875 122.818 70.9713V79.6727H118.397V64.0771Z" fill="#B3B3B3"/>
<path d="M134.603 71.9592V71.9017C134.603 67.4491 137.774 63.785 142.313 63.785C147.52 63.785 149.907 67.8291 149.907 72.2504C149.907 72.6004 149.878 73.0063 149.847 73.4155H138.997C139.135 74.3089 139.603 75.118 140.309 75.6834C141.014 76.2488 141.906 76.5295 142.808 76.4701C143.515 76.4791 144.215 76.3416 144.866 76.0662C145.517 75.7909 146.104 75.3837 146.589 74.8703L149.122 77.1093C148.04 78.3844 146.597 79.3004 144.983 79.7355C143.369 80.1707 141.66 80.1044 140.085 79.5455C138.509 78.9866 137.141 77.9616 136.162 76.6065C135.183 75.2515 134.639 73.6306 134.603 71.9592ZM145.601 70.6509C145.338 68.6723 144.175 67.3336 142.313 67.3336C140.478 67.3336 139.287 68.6443 138.938 70.6509H145.601Z" fill="#B3B3B3"/>
<path d="M152.03 64.0769H156.454V67.2166C157.354 65.0628 158.81 63.6681 161.427 63.7849V68.4098H161.196C158.257 68.4098 156.454 70.1856 156.454 73.9102V79.6726H152.03V64.0769Z" fill="#B3B3B3"/>
<path d="M162.825 82.7526L164.337 79.4381C165.931 80.3826 167.752 80.875 169.604 80.8623C172.631 80.8623 174.054 79.4068 174.054 76.6154V75.8574C173.475 76.6615 172.709 77.3122 171.822 77.7534C170.934 78.1945 169.953 78.4128 168.962 78.3893C165.328 78.3893 162.04 75.7423 162.04 71.1154V71.057C162.04 66.4009 165.385 63.7848 168.962 63.7848C169.923 63.7634 170.877 63.962 171.749 64.3652C172.622 64.7684 173.391 65.3657 173.998 66.1114V64.0768H178.417V76.149C178.417 78.942 177.75 80.9771 176.442 82.2862C174.986 83.7438 172.744 84.3829 169.72 84.3829C167.323 84.4071 164.957 83.8476 162.825 82.7526ZM174.054 71.1154V71.057C174.005 70.0835 173.583 69.1662 172.876 68.4947C172.17 67.8232 171.232 67.4488 170.257 67.4488C169.282 67.4488 168.345 67.8232 167.638 68.4947C166.931 69.1662 166.51 70.0835 166.46 71.057V71.1154C166.453 71.6063 166.547 72.0933 166.737 72.546C166.927 72.9987 167.209 73.4073 167.564 73.7461C167.919 74.0849 168.341 74.3466 168.802 74.5149C169.263 74.6832 169.754 74.7544 170.244 74.724C170.735 74.7522 171.226 74.6798 171.688 74.511C172.149 74.3423 172.572 74.0809 172.929 73.7429C173.286 73.4049 173.57 72.9974 173.763 72.5456C173.957 72.0937 174.056 71.607 174.054 71.1154Z" fill="#B3B3B3"/>
<path d="M181.009 83.3353L182.492 80.1343C183.061 80.4945 183.712 80.7052 184.385 80.7471C184.719 80.7774 185.054 80.6928 185.334 80.5073C185.614 80.3217 185.822 80.0462 185.924 79.7263L179.814 64.0764H184.5L188.051 74.6936L191.456 64.0764H196.05L190.059 80.0496C188.865 83.2177 187.586 84.4124 184.936 84.4124C183.551 84.4322 182.19 84.0587 181.009 83.3353Z" fill="#B3B3B3"/>
<path d="M0.0720294 97.63V97.5992C0.0707072 96.7847 0.317986 95.9892 0.780824 95.3191C1.24366 94.6489 1.90001 94.136 2.66215 93.8488C3.4243 93.5616 4.25594 93.5139 5.04593 93.712C5.83593 93.9101 6.54665 94.3446 7.08312 94.9574L6.32515 95.7588C6.04419 95.4077 5.69012 95.122 5.28756 94.9215C4.88501 94.7211 4.44362 94.6107 3.9941 94.5981C3.61734 94.6092 3.2466 94.6954 2.90354 94.8515C2.56049 95.0077 2.25203 95.2307 1.99621 95.5075C1.74039 95.7843 1.54235 96.1094 1.41368 96.4636C1.28501 96.8179 1.2283 97.1943 1.24686 97.5708V97.5992C1.23104 97.9817 1.292 98.3636 1.42615 98.7222C1.5603 99.0809 1.76491 99.409 2.02792 99.6873C2.29093 99.9655 2.60701 100.188 2.95751 100.342C3.30801 100.497 3.68584 100.579 4.06869 100.585C4.51833 100.571 4.95998 100.463 5.36438 100.266C5.76877 100.068 6.12667 99.7878 6.41435 99.4419L7.14234 100.124C6.62707 100.766 5.92502 101.232 5.13329 101.458C4.34156 101.684 3.49925 101.658 2.72286 101.384C1.94647 101.11 1.27437 100.602 0.799479 99.9292C0.324592 99.2567 0.0703878 98.4533 0.0720294 97.63Z" fill="#B3B3B3"/>
<path d="M9.02686 90.5897H10.1713V95.0897C10.4299 94.623 10.8119 94.2365 11.2755 93.9725C11.7391 93.7084 12.2664 93.5769 12.7997 93.5925C13.203 93.5708 13.6062 93.6364 13.9817 93.785C14.3572 93.9336 14.6963 94.1616 14.9755 94.4534C15.2548 94.7452 15.4677 95.0938 15.5997 95.4755C15.7317 95.8572 15.7796 96.2629 15.7403 96.6648V101.432H14.5971V96.9471C14.5971 95.5204 13.8237 94.6282 12.4736 94.6282C12.1604 94.6218 11.8492 94.6806 11.5599 94.8008C11.2706 94.921 11.0094 95.1001 10.7929 95.3266C10.5765 95.5531 10.4094 95.8221 10.3024 96.1165C10.1954 96.411 10.1507 96.7245 10.1713 97.0371V101.432H9.02686V90.5897Z" fill="#B3B3B3"/>
<path d="M17.5952 99.2021V99.1729C17.5952 97.5247 18.9347 96.6642 20.8793 96.6642C21.6732 96.6566 22.4637 96.7665 23.2254 96.9903V96.751C23.2254 95.3867 22.3944 94.6729 20.9532 94.6729C20.1441 94.6773 19.3467 94.8653 18.6209 95.2228L18.2798 94.2877C19.1475 93.8578 20.1028 93.6341 21.0712 93.634C21.52 93.6047 21.9702 93.6643 22.396 93.8093C22.8217 93.9543 23.2147 94.1819 23.5523 94.4791C23.8317 94.7818 24.0468 95.1381 24.1845 95.5264C24.3223 95.9147 24.3798 96.3269 24.3536 96.738V101.432H23.2254V100.288C22.9002 100.708 22.4803 101.045 22.0001 101.272C21.5199 101.499 20.9929 101.609 20.4621 101.593C19.0224 101.593 17.5952 100.779 17.5952 99.2021ZM23.24 98.6092V97.8978C22.5124 97.6806 21.7571 97.5703 20.9978 97.5701C19.5715 97.5701 18.7555 98.1922 18.7555 99.1145V99.1429C18.7555 100.11 19.6457 100.673 20.6859 100.673C22.0968 100.673 23.24 99.8266 23.24 98.6092Z" fill="#B3B3B3"/>
<path d="M26.7735 93.7535H27.9175V95.7586C28.1543 95.1219 28.5827 94.5744 29.1436 94.1913C29.7045 93.8083 30.3704 93.6086 31.0496 93.6197V94.8509H30.9612C29.283 94.8509 27.9175 96.0554 27.9175 98.3703V101.432H26.7735V93.7535Z" fill="#B3B3B3"/>
<path d="M32.3879 102.767L32.9079 101.876C33.7603 102.516 34.7984 102.86 35.8643 102.855C36.2356 102.896 36.6115 102.854 36.9647 102.733C37.3179 102.611 37.6396 102.412 37.9067 102.151C38.1737 101.889 38.3794 101.572 38.5089 101.222C38.6383 100.871 38.6883 100.496 38.6553 100.124V99.2173C38.3244 99.714 37.8762 100.122 37.3504 100.404C36.8246 100.686 36.2373 100.835 35.6404 100.836C35.1655 100.844 34.6938 100.757 34.2532 100.579C33.8127 100.402 33.4122 100.138 33.0757 99.8026C32.7391 99.4675 32.4732 99.0681 32.2938 98.6284C32.1143 98.1886 32.025 97.7172 32.0311 97.2423V97.2139C32.0341 96.4426 32.2824 95.6924 32.7399 95.0715C33.1974 94.4506 33.8404 93.9912 34.5761 93.7598C35.3119 93.5284 36.1021 93.5369 36.8326 93.7841C37.5632 94.0313 38.1962 94.5045 38.6402 95.1351V93.7538H39.7839V100.093C39.8114 100.589 39.7389 101.085 39.5706 101.552C39.4023 102.019 39.1418 102.448 38.8045 102.812C38.4081 103.167 37.9455 103.441 37.4431 103.617C36.9408 103.793 36.4086 103.868 35.8772 103.837C34.6315 103.85 33.4124 103.476 32.3879 102.767ZM38.684 97.2285V97.1985C38.6724 96.8417 38.5899 96.4908 38.4414 96.1662C38.2929 95.8416 38.0812 95.5497 37.8188 95.3077C37.5563 95.0657 37.2484 94.8783 36.9128 94.7565C36.5773 94.6347 36.2208 94.5808 35.8643 94.5981C35.5169 94.5817 35.1698 94.6367 34.8445 94.7599C34.5193 94.883 34.2228 95.0717 33.9734 95.3141C33.7241 95.5565 33.5271 95.8475 33.3948 96.1692C33.2625 96.4908 33.1977 96.8362 33.2043 97.1839V97.2139C33.2023 97.5616 33.27 97.9062 33.4035 98.2272C33.5371 98.5483 33.7337 98.8392 33.9817 99.0829C34.2298 99.3266 34.5242 99.5181 34.8475 99.6459C35.1709 99.7738 35.5166 99.8354 35.8643 99.8272C36.2202 99.8423 36.5755 99.7869 36.91 99.6643C37.2445 99.5418 37.5515 99.3544 37.8134 99.113C38.0754 98.8716 38.2871 98.5809 38.4365 98.2575C38.5859 97.9341 38.67 97.5844 38.684 97.2285Z" fill="#B3B3B3"/>
<path d="M45.7239 100.615C46.1814 100.619 46.6343 100.524 47.0519 100.337C47.4695 100.15 47.8419 99.8755 48.1439 99.5319L48.858 100.169C48.4747 100.633 47.9904 101.005 47.4421 101.254C46.8938 101.504 46.2958 101.626 45.6935 101.61C44.6742 101.562 43.7112 101.129 42.9998 100.398C42.2884 99.666 41.882 98.6912 41.863 97.671C41.844 96.6508 42.2139 95.6616 42.8976 94.9041C43.5812 94.1466 44.5275 93.6776 45.5443 93.5923C47.8169 93.5923 49.1245 95.4034 49.1245 97.6575C49.1245 97.7637 49.1245 97.8821 49.1095 98.0614H43.0214C43.0545 98.7537 43.3544 99.4064 43.8583 99.8825C44.3622 100.359 45.0308 100.621 45.7239 100.615ZM47.9666 97.1392C47.8332 95.7433 47.0302 94.5558 45.5159 94.5558C44.8516 94.5944 44.2262 94.8816 43.764 95.3602C43.3018 95.8389 43.0367 96.474 43.0214 97.1392H47.9666Z" fill="#B3B3B3"/>
<path d="M50.6834 97.6139V97.5838C50.6529 97.0787 50.7245 96.5727 50.894 96.096C51.0634 95.6192 51.3272 95.1815 51.6696 94.8089C52.012 94.4364 52.4259 94.1367 52.8867 93.9277C53.3475 93.7187 53.8457 93.6046 54.3515 93.5925C54.94 93.592 55.5189 93.7416 56.0335 94.0269C56.5482 94.3123 56.9816 94.7241 57.2929 95.2235V90.5897H58.4358V101.432H57.2929V99.8873C56.9914 100.401 56.5621 100.829 56.0467 101.128C55.5313 101.427 54.9473 101.587 54.3515 101.594C53.8458 101.585 53.3472 101.473 52.8858 101.266C52.4244 101.058 52.0098 100.76 51.667 100.388C51.3242 100.016 51.0603 99.5782 50.8912 99.1015C50.7222 98.6247 50.6515 98.1187 50.6834 97.6139ZM57.3367 97.5992V97.5708C57.3504 97.1939 57.2893 96.818 57.1568 96.4649C57.0244 96.1117 56.8232 95.7883 56.565 95.5134C56.3068 95.2385 55.9966 95.0175 55.6525 94.8632C55.3083 94.7089 54.937 94.6243 54.56 94.6144C54.1829 94.6136 53.8099 94.6916 53.4647 94.8433C53.1195 94.9951 52.8098 95.2172 52.5553 95.4955C52.3009 95.7737 52.1074 96.1021 51.9872 96.4594C51.8669 96.8168 51.8226 97.1953 51.857 97.5708V97.5992C51.8288 97.9741 51.8774 98.3507 51.9997 98.7061C52.1221 99.0616 52.3158 99.3882 52.5688 99.6662C52.8218 99.9442 53.1289 100.168 53.4713 100.323C53.8137 100.478 54.1841 100.562 54.56 100.569C54.9376 100.557 55.3093 100.471 55.6535 100.315C55.9978 100.16 56.3079 99.9375 56.566 99.6615C56.824 99.3855 57.025 99.0612 57.1572 98.7073C57.2895 98.3534 57.3505 97.9768 57.3367 97.5992Z" fill="#B3B3B3"/>
<path d="M65.8759 94.762H64.8215V93.7668H65.8759V93.1001C65.8514 92.7429 65.8978 92.3845 66.0126 92.0454C66.1273 91.7062 66.308 91.3932 66.5443 91.1243C66.7657 90.9207 67.0256 90.7633 67.3086 90.6614C67.5916 90.5594 67.8921 90.5149 68.1924 90.5305C68.6213 90.5159 69.0492 90.5808 69.4545 90.7219V91.718C69.0954 91.5982 68.7201 91.5336 68.3416 91.5265C67.4494 91.5265 67.0058 92.0594 67.0058 93.1576V93.7822H69.4407V94.762H67.0204V101.432H65.8759V94.762Z" fill="#B3B3B3"/>
<path d="M70.2719 97.6298V97.599C70.2703 96.5389 70.6893 95.5215 71.437 94.7699C72.1847 94.0184 73.2 93.5942 74.2601 93.5905C75.3202 93.5867 76.3385 94.0037 77.0915 94.7499C77.8445 95.4961 78.2707 96.5105 78.2766 97.5706V97.599C78.2796 98.128 78.1773 98.6523 77.9757 99.1414C77.7741 99.6304 77.4773 100.075 77.1024 100.448C76.7276 100.821 76.2822 101.116 75.7923 101.316C75.3024 101.515 74.7777 101.615 74.2487 101.61C73.7245 101.616 73.2044 101.517 72.719 101.319C72.2335 101.121 71.7926 100.828 71.422 100.457C71.0515 100.087 70.7589 99.6454 70.5613 99.1598C70.3638 98.6742 70.2654 98.154 70.2719 97.6298ZM77.1029 97.6298V97.599C77.1154 97.2138 77.0512 96.83 76.914 96.4699C76.7768 96.1098 76.5694 95.7805 76.3038 95.5012C76.0382 95.222 75.7198 94.9983 75.367 94.8433C75.0141 94.6882 74.634 94.6048 74.2487 94.598C73.8672 94.6017 73.4903 94.6825 73.1407 94.8353C72.7911 94.9882 72.476 95.2101 72.2142 95.4877C71.9524 95.7652 71.7493 96.0928 71.6171 96.4507C71.4849 96.8086 71.4262 97.1895 71.4447 97.5706V97.599C71.4307 97.9823 71.4933 98.3645 71.6289 98.7233C71.7645 99.082 71.9705 99.4101 72.2346 99.6882C72.4987 99.9663 72.8157 100.189 73.167 100.343C73.5183 100.497 73.8968 100.579 74.2803 100.585C74.6619 100.584 75.0394 100.505 75.39 100.355C75.7407 100.204 76.0573 99.9843 76.3209 99.7084C76.5845 99.4324 76.7896 99.1061 76.924 98.7489C77.0584 98.3917 77.1193 98.0111 77.1029 97.6298Z" fill="#B3B3B3"/>
<path d="M80.3405 93.7535H81.4849V95.7586C81.7215 95.1218 82.1497 94.5742 82.7106 94.1911C83.2715 93.808 83.9375 93.6084 84.6167 93.6197V94.8509H84.5282C82.8509 94.8509 81.4849 96.0554 81.4849 98.3703V101.432H80.3405V93.7535Z" fill="#B3B3B3"/>
<path d="M94.194 100.615C94.6516 100.619 95.1046 100.524 95.5223 100.337C95.94 100.15 96.3125 99.8757 96.6144 99.5319L97.3297 100.169C96.9459 100.633 96.4616 101.004 95.9133 101.254C95.365 101.504 94.7671 101.625 94.1648 101.61C93.1454 101.563 92.1822 101.129 91.4707 100.397C90.7593 99.6659 90.3528 98.691 90.3339 97.6706C90.3151 96.6503 90.6851 95.661 91.369 94.9036C92.0529 94.1462 92.9994 93.6773 94.0164 93.5923C96.2891 93.5923 97.5974 95.4034 97.5974 97.6575C97.5989 97.7923 97.5929 97.9272 97.5796 98.0614H91.4915C91.5255 98.7534 91.8258 99.4055 92.3294 99.8814C92.8331 100.357 93.5012 100.62 94.194 100.615ZM96.4359 97.1392C96.3036 95.7433 95.5032 94.5558 93.9888 94.5558C93.3243 94.5943 92.6985 94.8814 92.2358 95.36C91.7732 95.8386 91.5075 96.4737 91.4915 97.1392H96.4359Z" fill="#B3B3B3"/>
<path d="M98.4728 93.7535H99.7348L102.321 100.124L104.917 93.7535H106.151L102.81 101.49H101.801L98.4728 93.7535Z" fill="#B3B3B3"/>
<path d="M107.026 97.6298V97.599C107.025 96.5392 107.445 95.5222 108.192 94.7711C108.94 94.02 109.955 93.5961 111.015 93.5923C112.074 93.5885 113.092 94.0053 113.845 94.7511C114.598 95.4968 115.025 96.5108 115.031 97.5706V97.599C115.035 98.128 114.933 98.6523 114.731 99.1414C114.53 99.6306 114.233 100.075 113.858 100.448C113.484 100.821 113.038 101.116 112.548 101.316C112.059 101.515 111.534 101.615 111.005 101.61C110.481 101.616 109.96 101.517 109.475 101.319C108.989 101.121 108.548 100.828 108.178 100.458C107.807 100.087 107.514 99.6456 107.316 99.16C107.119 98.6743 107.02 98.1541 107.026 97.6298ZM113.858 97.6298V97.599C113.87 97.2139 113.806 96.8301 113.669 96.47C113.532 96.1099 113.325 95.7807 113.059 95.5014C112.794 95.2221 112.476 94.9984 112.123 94.8433C111.77 94.6882 111.39 94.6048 111.005 94.5979C110.623 94.6015 110.246 94.6822 109.896 94.835C109.547 94.9878 109.231 95.2096 108.969 95.4872C108.707 95.7647 108.504 96.0923 108.372 96.4503C108.24 96.8083 108.181 97.1894 108.199 97.5706V97.599C108.185 97.9825 108.248 98.3649 108.384 98.7238C108.52 99.0826 108.726 99.4108 108.991 99.6889C109.255 99.967 109.573 100.189 109.924 100.343C110.276 100.497 110.654 100.579 111.038 100.585C111.42 100.583 111.797 100.505 112.147 100.354C112.497 100.203 112.814 99.9833 113.077 99.7074C113.34 99.4315 113.545 99.1052 113.679 98.7482C113.813 98.3912 113.874 98.0108 113.858 97.6298Z" fill="#B3B3B3"/>
<path d="M117.2 90.5897H118.343V101.432H117.2V90.5897Z" fill="#B3B3B3"/>
<path d="M120.882 98.5195V93.7535H122.026V98.2372C122.026 99.6631 122.799 100.555 124.15 100.555C124.463 100.561 124.773 100.501 125.062 100.38C125.35 100.26 125.611 100.081 125.827 99.8551C126.043 99.6291 126.21 99.3609 126.318 99.0673C126.426 98.7737 126.471 98.461 126.452 98.1489V93.7535H127.579V101.432H126.452V100.093C126.193 100.559 125.81 100.945 125.347 101.21C124.883 101.474 124.356 101.607 123.823 101.594C123.419 101.615 123.016 101.549 122.64 101.401C122.265 101.252 121.926 101.024 121.646 100.732C121.367 100.44 121.154 100.091 121.023 99.7093C120.891 99.3274 120.843 98.9216 120.882 98.5195Z" fill="#B3B3B3"/>
<path d="M130.549 99.3965V94.7627H129.479V93.7536H130.549V91.4371H131.693V93.7536H134.13V94.7627H131.693V99.2472C131.669 99.4218 131.686 99.5995 131.743 99.7664C131.8 99.9332 131.894 100.085 132.019 100.209C132.144 100.333 132.297 100.426 132.464 100.481C132.632 100.536 132.809 100.551 132.984 100.525C133.372 100.527 133.754 100.436 134.099 100.258V101.236C133.674 101.46 133.199 101.573 132.719 101.564C132.426 101.598 132.129 101.566 131.85 101.469C131.571 101.373 131.318 101.214 131.109 101.005C130.9 100.797 130.741 100.544 130.644 100.265C130.547 99.9866 130.515 99.6895 130.549 99.3965Z" fill="#B3B3B3"/>
<path d="M136.179 90.8132H137.484V92.0752H136.179V90.8132ZM136.253 93.7533H137.396V101.432H136.253V93.7533Z" fill="#B3B3B3"/>
<path d="M139.581 97.63V97.5991C139.579 96.5392 139.998 95.522 140.746 94.7706C141.493 94.0193 142.508 93.5952 143.568 93.5914C144.628 93.5876 145.646 94.0045 146.399 94.7506C147.152 95.4966 147.578 96.5109 147.584 97.5707V97.5991C147.587 98.128 147.485 98.6522 147.284 99.1412C147.083 99.6302 146.786 100.074 146.412 100.448C146.037 100.821 145.592 101.116 145.102 101.315C144.613 101.515 144.088 101.615 143.559 101.61C143.035 101.616 142.515 101.518 142.029 101.32C141.543 101.122 141.102 100.829 140.732 100.458C140.361 100.087 140.068 99.646 139.87 99.1603C139.673 98.6746 139.574 98.1543 139.581 97.63ZM146.409 97.63V97.5991C146.422 97.2142 146.358 96.8306 146.221 96.4707C146.085 96.1107 145.878 95.7815 145.612 95.5022C145.347 95.223 145.029 94.9993 144.677 94.844C144.324 94.6888 143.944 94.6052 143.559 94.5981C143.178 94.6014 142.8 94.6818 142.45 94.8345C142.101 94.9872 141.785 95.2091 141.523 95.4867C141.261 95.7643 141.058 96.092 140.926 96.4502C140.793 96.8083 140.735 97.1895 140.754 97.5707V97.5991C140.739 97.9824 140.802 98.3647 140.937 98.7235C141.073 99.0823 141.279 99.4104 141.543 99.6885C141.807 99.9667 142.124 100.189 142.475 100.343C142.826 100.497 143.205 100.579 143.589 100.585C143.97 100.584 144.347 100.505 144.698 100.355C145.048 100.204 145.365 99.9841 145.628 99.7082C145.892 99.4322 146.097 99.1059 146.231 98.7488C146.365 98.3917 146.426 98.0111 146.409 97.63Z" fill="#B3B3B3"/>
<path d="M149.647 93.7531H150.79V95.089C151.049 94.6226 151.431 94.2363 151.894 93.9722C152.357 93.7081 152.884 93.5765 153.418 93.5918C153.821 93.5699 154.224 93.6354 154.6 93.7839C154.976 93.9324 155.315 94.1604 155.594 94.4521C155.874 94.7439 156.087 95.0926 156.219 95.4744C156.351 95.8562 156.399 96.2621 156.36 96.6642V101.432H155.217V96.9464C155.217 95.5197 154.445 94.6275 153.095 94.6275C152.781 94.6209 152.47 94.6795 152.18 94.7996C151.891 94.9197 151.63 95.0987 151.413 95.3252C151.196 95.5518 151.029 95.8208 150.922 96.1154C150.815 96.41 150.77 96.7236 150.79 97.0364V101.432H149.647V93.7531Z" fill="#B3B3B3"/>
</svg>
