<svg width="229" height="44" viewBox="0 0 229 44" fill="none" xmlns="http://www.w3.org/2000/svg">
<g clip-path="url(#clip0_1_31)">
<path d="M26.6683 39.2071H0V0H39.2071V26.6683H34.8626V4.34446H4.34446V34.8626H26.6683V39.2071Z" fill="white"/>
<path d="M43.0971 34.8025H39.2072V30.9058H34.8627V34.8025H30.9661V39.1403H34.8627V43.0369H39.2072V39.1403H43.0971V34.8025Z" fill="white"/>
<path d="M17.7587 8.61536H8.56848V12.9598H17.7587V8.61536Z" fill="white"/>
<path d="M53.2497 25.0909H57.2265V27.096C57.6707 26.4122 58.2774 25.8492 58.9924 25.4573C59.7074 25.0654 60.5084 24.8568 61.3237 24.8503C64.3314 24.8503 66.0826 26.8554 66.0826 30.0502V39.1135H62.1057V31.2801C62.1057 29.4019 61.2235 28.4328 59.7062 28.4328C58.189 28.4328 57.2265 29.4019 57.2265 31.2801V39.0934H53.2497V25.0909Z" fill="white"/>
<path d="M68.5624 20.0246H72.7397V23.547H68.5624V20.0246ZM68.6693 25.0909H72.6395V39.1269H68.6693V25.0909Z" fill="white"/>
<path d="M75.3264 25.0909H79.2966V27.096C79.7486 26.4121 80.3616 25.8497 81.0818 25.4581C81.8021 25.0665 82.6074 24.8578 83.4272 24.8503C84.228 24.8032 85.0256 24.9873 85.7247 25.3808C86.4239 25.7742 86.9952 26.3603 87.3706 27.0693C87.9154 26.3713 88.6135 25.8081 89.4109 25.4233C90.2084 25.0385 91.0837 24.8424 91.9691 24.8503C94.9233 24.8503 96.7012 26.6282 96.7012 29.9968V39.1135H92.731V31.2801C92.731 29.402 91.8955 28.4328 90.4051 28.4328C88.9146 28.4328 87.9989 29.402 87.9989 31.2801V39.0935H84.0287V31.2801C84.0287 29.402 83.1932 28.4328 81.7027 28.4328C80.2123 28.4328 79.2966 29.402 79.2966 31.2801V39.0935H75.3264V25.0909Z" fill="white"/>
<path d="M103.078 37.2688V39.0935H99.0673V20.0246H103.078V27.1027C103.556 26.3897 104.205 25.808 104.967 25.411C105.728 25.014 106.577 24.8143 107.435 24.8302C110.704 24.8302 113.812 27.3901 113.812 32.0688V32.1223C113.812 36.8009 110.757 39.3541 107.435 39.3541C106.596 39.373 105.765 39.194 105.008 38.8317C104.25 38.4694 103.589 37.934 103.078 37.2688ZM109.842 32.1223V32.0688C109.842 29.7428 108.271 28.1989 106.419 28.1989C104.568 28.1989 103.024 29.7428 103.024 32.0688V32.1223C103.024 34.4416 104.561 35.9855 106.419 35.9855C108.278 35.9855 109.842 34.495 109.842 32.1223Z" fill="white"/>
<path d="M115.877 20.0246H119.847V39.0935H115.877V20.0246Z" fill="white"/>
<path d="M121.859 32.169V32.1222C121.859 28.112 124.706 24.8302 128.783 24.8302C133.462 24.8302 135.601 28.4595 135.601 32.4364C135.601 32.7438 135.601 33.1047 135.547 33.479H125.802C125.929 34.28 126.35 35.0049 126.983 35.5117C127.616 36.0186 128.415 36.271 129.224 36.2194C129.86 36.2284 130.491 36.1054 131.076 35.858C131.662 35.6106 132.19 35.2444 132.626 34.7824L134.899 36.7875C134.214 37.6399 133.34 38.3202 132.345 38.774C131.35 39.2278 130.263 39.4425 129.171 39.4009C124.967 39.4076 121.859 36.4533 121.859 32.169ZM131.751 30.9927C131.517 29.2215 130.474 28.0184 128.803 28.0184C127.132 28.0184 126.083 29.1947 125.775 30.9927H131.751Z" fill="white"/>
<path d="M143.621 32.169V32.1222C143.621 28.112 146.469 24.8302 150.546 24.8302C155.224 24.8302 157.363 28.4595 157.363 32.4364C157.363 32.7438 157.363 33.1047 157.31 33.479H147.565C147.691 34.28 148.112 35.0049 148.745 35.5117C149.378 36.0186 150.177 36.271 150.987 36.2194C151.622 36.2284 152.253 36.1054 152.839 35.858C153.424 35.6106 153.952 35.2444 154.389 34.7824L156.661 36.7875C155.978 37.6394 155.104 38.3194 154.111 38.7732C153.117 39.227 152.031 39.442 150.94 39.4009C146.729 39.4076 143.621 36.4533 143.621 32.169ZM153.5 30.9927C153.259 29.2215 152.217 28.0184 150.546 28.0184C148.875 28.0184 147.825 29.1947 147.518 30.9927H153.5Z" fill="white"/>
<path d="M159.275 25.0909H163.245V27.096C164.16 25.9197 165.337 24.8503 167.342 24.8503C170.35 24.8503 172.101 26.8554 172.101 30.0502V39.1135H168.131V31.2801C168.131 29.4019 167.242 28.4328 165.724 28.4328C164.207 28.4328 163.245 29.4019 163.245 31.2801V39.0934H159.275V25.0909Z" fill="white"/>
<path d="M173.859 32.169V32.1222C173.859 28.112 176.706 24.8302 180.783 24.8302C185.462 24.8302 187.601 28.4595 187.601 32.4364C187.601 32.7438 187.601 33.1047 187.547 33.479H177.769C177.894 34.2807 178.315 35.0064 178.948 35.5136C179.581 36.0207 180.381 36.2725 181.191 36.2194C181.826 36.2287 182.455 36.1057 183.04 35.8583C183.624 35.6109 184.151 35.2445 184.586 34.7824L186.859 36.7875C186.176 37.6398 185.302 38.3201 184.309 38.774C183.315 39.2278 182.229 39.4425 181.137 39.4009C176.933 39.4076 173.859 36.4533 173.859 32.169ZM183.731 30.9927C183.497 29.2215 182.454 28.0184 180.783 28.0184C179.112 28.0184 178.063 29.1947 177.749 30.9927H183.731Z" fill="white"/>
<path d="M189.472 25.091H193.442V27.9116C194.258 25.98 195.561 24.7234 197.914 24.8304V28.981H197.7C195.066 28.981 193.442 30.5785 193.442 33.9203V39.0936H189.472V25.091Z" fill="white"/>
<path d="M199.164 41.8473L200.5 38.873C201.93 39.7201 203.564 40.1615 205.226 40.1496C207.946 40.1496 209.236 38.8129 209.236 36.3399V35.6715C208.716 36.3932 208.028 36.9774 207.231 37.3733C206.435 37.7693 205.554 37.9652 204.664 37.944C201.403 37.944 198.448 35.5712 198.448 31.4139V31.3604C198.448 27.1831 201.449 24.8304 204.664 24.8304C205.528 24.8121 206.384 24.991 207.169 25.3536C207.953 25.7161 208.644 26.2526 209.189 26.9224V25.091H213.153V35.9322C213.153 38.4453 212.558 40.27 211.382 41.4463C210.045 42.7831 208.04 43.3244 205.366 43.3244C203.209 43.3428 201.081 42.8358 199.164 41.8473ZM209.283 31.4139V31.3604C209.229 30.4933 208.846 29.6795 208.213 29.0846C207.579 28.4897 206.743 28.1586 205.874 28.1586C205.005 28.1586 204.169 28.4897 203.536 29.0846C202.903 29.6795 202.52 30.4933 202.465 31.3604V31.4139C202.459 31.8545 202.544 32.2917 202.714 32.6981C202.885 33.1044 203.137 33.4713 203.456 33.7756C203.775 34.0799 204.153 34.3151 204.566 34.4665C204.98 34.6179 205.421 34.6823 205.861 34.6556C206.301 34.6801 206.742 34.6145 207.157 34.4626C207.571 34.3107 207.95 34.0758 208.271 33.7723C208.591 33.4688 208.846 33.1031 209.02 32.6976C209.194 32.292 209.284 31.8552 209.283 31.4139Z" fill="white"/>
<path d="M215.499 42.3887L216.836 39.5147C217.346 39.837 217.93 40.0255 218.533 40.0627C218.829 40.0884 219.125 40.0149 219.374 39.854C219.623 39.693 219.812 39.4537 219.91 39.1738L214.423 25.1378H218.64L221.828 34.6756L224.883 25.1378H229.007L223.626 39.4812C222.557 42.3285 221.407 43.3979 219.028 43.3979C217.779 43.4051 216.555 43.0549 215.499 42.3887Z" fill="white"/>
</g>
<defs>
<clipPath id="clip0_1_31">
<rect width="229" height="43.3511" fill="white"/>
</clipPath>
</defs>
</svg>
