<svg width="56" height="56" viewBox="0 0 56 56" fill="none" xmlns="http://www.w3.org/2000/svg">
<rect width="56" height="56" fill="#252525"/>
<path d="M20.75 17.875C19.5764 17.875 18.625 18.8264 18.625 20C18.625 21.1736 19.5764 22.125 20.75 22.125C21.9236 22.125 22.875 21.1736 22.875 20C22.875 18.8264 21.9236 17.875 20.75 17.875Z" fill="white"/>
<path d="M18.75 23.875C18.681 23.875 18.625 23.931 18.625 24V37C18.625 37.069 18.681 37.125 18.75 37.125H22.75C22.819 37.125 22.875 37.069 22.875 37V24C22.875 23.931 22.819 23.875 22.75 23.875H18.75Z" fill="white"/>
<path d="M25.25 23.875C25.181 23.875 25.125 23.931 25.125 24V37C25.125 37.069 25.181 37.125 25.25 37.125H29.25C29.319 37.125 29.375 37.069 29.375 37V30C29.375 29.5027 29.5725 29.0258 29.9242 28.6742C30.2758 28.3225 30.7527 28.125 31.25 28.125C31.7473 28.125 32.2242 28.3225 32.5758 28.6742C32.9275 29.0258 33.125 29.5027 33.125 30V37C33.125 37.069 33.181 37.125 33.25 37.125H37.25C37.319 37.125 37.375 37.069 37.375 37V28.3802C37.375 25.9535 35.2644 24.055 32.8498 24.2745C32.1052 24.3422 31.369 24.5273 30.6815 24.8219L29.375 25.3819V24C29.375 23.931 29.319 23.875 29.25 23.875H25.25Z" fill="white"/>
</svg>
