<svg width="24" height="25" viewBox="0 0 24 25" fill="none" xmlns="http://www.w3.org/2000/svg">
<path d="M16.0659 9.49479C16.3588 9.2019 16.3588 8.72703 16.0659 8.43413C15.773 8.14124 15.2981 8.14124 15.0052 8.43413L12 11.4393L8.99482 8.43413C8.70192 8.14124 8.22705 8.14124 7.93416 8.43413C7.64126 8.72703 7.64126 9.2019 7.93416 9.49479L10.9394 12.5L7.93415 15.5052C7.64125 15.7981 7.64125 16.273 7.93415 16.5659C8.22704 16.8588 8.70191 16.8588 8.99481 16.5659L12 13.5607L15.0052 16.5659C15.2981 16.8588 15.773 16.8588 16.0659 16.5659C16.3588 16.273 16.3588 15.7981 16.0659 15.5052L13.0607 12.5L16.0659 9.49479Z" fill="#005437"/>
</svg>
